#Comment line ignore any data following # character 
#Hierarchical Translation and Rotation (.htr) file 
[Header]	
#Header keywords are followed by a single value 
FileType HTR		#Single word string
DataType HTRS		#Translation followed by rotation and scale data
FileVersion 1		#integer
NumSegments 84		#integer
NumFrames 2		#integer
DataFrameRate 30		#integer, data frame rate in this file
EulerRotationOrder ZYX
CalibrationUnits mm
RotationUnits Degrees
GlobalAxisofGravity Y
BoneLengthAxis Y
ScaleFactor 1.00
[SegmentNames&Hierarchy]
#CHILD	PARENT
MASTER GLOBAL
root MASTER
chest root
L_mid_tent01 root
R_mid_tent01 root
spine01 root
Bip01_Neck chest
L_humerus chest
R_humerus chest
weapon_bone chest
Bip01_Head Bip01_Neck
eye_left_bone Bip01_Head
eye_right_bone Bip01_Head
L_forearm L_humerus
L_front_hand L_forearm
L_weapon_bone L_forearm
L_front_hand01_01 L_front_hand
L_front_hand02_01 L_front_hand
L_front_hand03_01 L_front_hand
L_front_hand01_02 L_front_hand01_01
L_front_hand02_02 L_front_hand02_01
L_front_hand03_02 L_front_hand03_01
R_forearm R_humerus
R_front_hand R_forearm
R_weapon_bone R_forearm
R_front_hand01_01 R_front_hand
R_front_hand02_01 R_front_hand
R_front_hand03_01 R_front_hand
R_front_hand01_02 R_front_hand01_01
R_front_hand02_02 R_front_hand02_01
R_front_hand03_02 R_front_hand03_01
null_rope01_connect L_mid_tent01
Rope1_Seg01 null_rope01_connect
Rope1_Seg02 Rope1_Seg01
Rope1_Seg03 Rope1_Seg02
Rope1_Seg04 Rope1_Seg03
Rope1_Seg05 Rope1_Seg04
Rope1_Seg06 Rope1_Seg05
Rope1_Seg07 Rope1_Seg06
Rope1_Seg09 Rope1_Seg07
L_mid_hand01 Rope1_Seg09
L_mid_hand02 Rope1_Seg09
L_mid_hand03 Rope1_Seg09
null_rope02_connect R_mid_tent01
Rope2_Seg01 null_rope02_connect
Rope2_Seg02 Rope2_Seg01
Rope2_Seg03 Rope2_Seg02
Rope2_Seg04 Rope2_Seg03
Rope2_Seg05 Rope2_Seg04
Rope2_Seg06 Rope2_Seg05
Rope2_Seg07 Rope2_Seg06
Rope2_Seg09 Rope2_Seg07
R_mid_hand01 Rope2_Seg09
R_mid_hand02 Rope2_Seg09
R_mid_hand03 Rope2_Seg09
spine02 spine01
spine03 spine02
pelvis spine03
null_rope03_connect pelvis
null_rope04_connect pelvis
Rope3_Seg01 null_rope03_connect
Rope3_Seg02 Rope3_Seg01
Rope3_Seg03 Rope3_Seg02
Rope3_Seg04 Rope3_Seg03
Rope3_Seg05 Rope3_Seg04
Rope3_Seg06 Rope3_Seg05
Rope3_Seg07 Rope3_Seg06
Rope3_Seg08 Rope3_Seg07
Rope3_Seg09 Rope3_Seg08
R_rear_hand01 Rope3_Seg09
R_rear_hand02 Rope3_Seg09
R_rear_hand03 Rope3_Seg09
Rope4_Seg01 null_rope04_connect
Rope4_Seg02 Rope4_Seg01
Rope4_Seg03 Rope4_Seg02
Rope4_Seg04 Rope4_Seg03
Rope4_Seg05 Rope4_Seg04
Rope4_Seg06 Rope4_Seg05
Rope4_Seg07 Rope4_Seg06
Rope4_Seg08 Rope4_Seg07
Rope4_Seg09 Rope4_Seg08
L_rear_hand01 Rope4_Seg09
L_rear_hand02 Rope4_Seg09
L_rear_hand03 Rope4_Seg09
[BasePosition]
#SegmentName Tx, Ty, Tz, Rx, Ry, Rz, BoneLength
MASTER 0.000000 0.000000 0.000000 -90.000000 0.000000 0.000000 10.000000 
root 0.000000 0.000000 0.000000 0.000000 0.000000 0.000000 10.000000 
chest 0.000000 0.000000 0.000000 0.000000 0.000000 0.000000 10.000000 
L_mid_tent01 0.000000 0.000000 0.000000 0.000000 0.000000 0.000000 10.000000 
R_mid_tent01 0.000000 0.000000 0.000000 0.000000 0.000000 0.000000 10.000000 
spine01 0.000000 0.000000 0.000000 0.000000 0.000000 0.000000 10.000000 
Bip01_Neck 0.000000 0.000000 0.000000 0.000000 0.000000 0.000000 10.000000 
L_humerus 0.000000 0.000000 0.000000 0.000000 0.000000 0.000000 10.000000 
R_humerus 0.000000 0.000000 0.000000 0.000000 0.000000 0.000000 10.000000 
weapon_bone 0.000000 0.000000 0.000000 0.000000 0.000000 0.000000 10.000000 
Bip01_Head 0.000000 0.000000 0.000000 0.000000 0.000000 0.000000 10.000000 
eye_left_bone 0.000000 0.000000 0.000000 0.000000 0.000000 0.000000 10.000000 
eye_right_bone 0.000000 0.000000 0.000000 0.000000 0.000000 0.000000 10.000000 
L_forearm 0.000000 0.000000 0.000000 0.000000 0.000000 0.000000 10.000000 
L_front_hand 0.000000 0.000000 0.000000 0.000000 0.000000 0.000000 10.000000 
L_weapon_bone 0.000000 0.000000 0.000000 0.000000 0.000000 0.000000 10.000000 
L_front_hand01_01 0.000000 0.000000 0.000000 0.000000 0.000000 0.000000 10.000000 
L_front_hand02_01 0.000000 0.000000 0.000000 0.000000 0.000000 0.000000 10.000000 
L_front_hand03_01 0.000000 0.000000 0.000000 0.000000 0.000000 0.000000 10.000000 
L_front_hand01_02 0.000000 0.000000 0.000000 0.000000 0.000000 0.000000 10.000000 
L_front_hand02_02 0.000000 0.000000 0.000000 0.000000 0.000000 0.000000 10.000000 
L_front_hand03_02 0.000000 0.000000 0.000000 0.000000 0.000000 0.000000 10.000000 
R_forearm 0.000000 0.000000 0.000000 0.000000 0.000000 0.000000 10.000000 
R_front_hand 0.000000 0.000000 0.000000 0.000000 0.000000 0.000000 10.000000 
R_weapon_bone 0.000000 0.000000 0.000000 0.000000 0.000000 0.000000 10.000000 
R_front_hand01_01 0.000000 0.000000 0.000000 0.000000 0.000000 0.000000 10.000000 
R_front_hand02_01 0.000000 0.000000 0.000000 0.000000 0.000000 0.000000 10.000000 
R_front_hand03_01 0.000000 0.000000 0.000000 0.000000 0.000000 0.000000 10.000000 
R_front_hand01_02 0.000000 0.000000 0.000000 0.000000 0.000000 0.000000 10.000000 
R_front_hand02_02 0.000000 0.000000 0.000000 0.000000 0.000000 0.000000 10.000000 
R_front_hand03_02 0.000000 0.000000 0.000000 0.000000 0.000000 0.000000 10.000000 
null_rope01_connect 0.000000 0.000000 0.000000 0.000000 0.000000 0.000000 10.000000 
Rope1_Seg01 0.000000 0.000000 0.000000 0.000000 0.000000 0.000000 10.000000 
Rope1_Seg02 0.000000 0.000000 0.000000 0.000000 0.000000 0.000000 10.000000 
Rope1_Seg03 0.000000 0.000000 0.000000 0.000000 0.000000 0.000000 10.000000 
Rope1_Seg04 0.000000 0.000000 0.000000 0.000000 0.000000 0.000000 10.000000 
Rope1_Seg05 0.000000 0.000000 0.000000 0.000000 0.000000 0.000000 10.000000 
Rope1_Seg06 0.000000 0.000000 0.000000 0.000000 0.000000 0.000000 10.000000 
Rope1_Seg07 0.000000 0.000000 0.000000 0.000000 0.000000 0.000000 10.000000 
Rope1_Seg09 0.000000 0.000000 0.000000 0.000000 0.000000 0.000000 10.000000 
L_mid_hand01 0.000000 0.000000 0.000000 0.000000 0.000000 0.000000 10.000000 
L_mid_hand02 0.000000 0.000000 0.000000 0.000000 0.000000 0.000000 10.000000 
L_mid_hand03 0.000000 0.000000 0.000000 0.000000 0.000000 0.000000 10.000000 
null_rope02_connect 0.000000 0.000000 0.000000 0.000000 0.000000 0.000000 10.000000 
Rope2_Seg01 0.000000 0.000000 0.000000 0.000000 0.000000 0.000000 10.000000 
Rope2_Seg02 0.000000 0.000000 0.000000 0.000000 0.000000 0.000000 10.000000 
Rope2_Seg03 0.000000 0.000000 0.000000 0.000000 0.000000 0.000000 10.000000 
Rope2_Seg04 0.000000 0.000000 0.000000 0.000000 0.000000 0.000000 10.000000 
Rope2_Seg05 0.000000 0.000000 0.000000 0.000000 0.000000 0.000000 10.000000 
Rope2_Seg06 0.000000 0.000000 0.000000 0.000000 0.000000 0.000000 10.000000 
Rope2_Seg07 0.000000 0.000000 0.000000 0.000000 0.000000 0.000000 10.000000 
Rope2_Seg09 0.000000 0.000000 0.000000 0.000000 0.000000 0.000000 10.000000 
R_mid_hand01 0.000000 0.000000 0.000000 0.000000 0.000000 0.000000 10.000000 
R_mid_hand02 0.000000 0.000000 0.000000 0.000000 0.000000 0.000000 10.000000 
R_mid_hand03 0.000000 0.000000 0.000000 0.000000 0.000000 0.000000 10.000000 
spine02 0.000000 0.000000 0.000000 0.000000 0.000000 0.000000 10.000000 
spine03 0.000000 0.000000 0.000000 0.000000 0.000000 0.000000 10.000000 
pelvis 0.000000 0.000000 0.000000 0.000000 0.000000 0.000000 10.000000 
null_rope03_connect 0.000000 0.000000 0.000000 0.000000 0.000000 0.000000 10.000000 
null_rope04_connect 0.000000 0.000000 0.000000 0.000000 0.000000 0.000000 10.000000 
Rope3_Seg01 0.000000 0.000000 0.000000 0.000000 0.000000 0.000000 10.000000 
Rope3_Seg02 0.000000 0.000000 0.000000 0.000000 0.000000 0.000000 10.000000 
Rope3_Seg03 0.000000 0.000000 0.000000 0.000000 0.000000 0.000000 10.000000 
Rope3_Seg04 0.000000 0.000000 0.000000 0.000000 0.000000 0.000000 10.000000 
Rope3_Seg05 0.000000 0.000000 0.000000 0.000000 0.000000 0.000000 10.000000 
Rope3_Seg06 0.000000 0.000000 0.000000 0.000000 0.000000 0.000000 10.000000 
Rope3_Seg07 0.000000 0.000000 0.000000 0.000000 0.000000 0.000000 10.000000 
Rope3_Seg08 0.000000 0.000000 0.000000 0.000000 0.000000 0.000000 10.000000 
Rope3_Seg09 0.000000 0.000000 0.000000 0.000000 0.000000 0.000000 10.000000 
R_rear_hand01 0.000000 0.000000 0.000000 0.000000 0.000000 0.000000 10.000000 
R_rear_hand02 0.000000 0.000000 0.000000 0.000000 0.000000 0.000000 10.000000 
R_rear_hand03 0.000000 0.000000 0.000000 0.000000 0.000000 0.000000 10.000000 
Rope4_Seg01 0.000000 0.000000 0.000000 0.000000 0.000000 0.000000 10.000000 
Rope4_Seg02 0.000000 0.000000 0.000000 0.000000 0.000000 0.000000 10.000000 
Rope4_Seg03 0.000000 0.000000 0.000000 0.000000 0.000000 0.000000 10.000000 
Rope4_Seg04 0.000000 0.000000 0.000000 0.000000 0.000000 0.000000 10.000000 
Rope4_Seg05 0.000000 0.000000 0.000000 0.000000 0.000000 0.000000 10.000000 
Rope4_Seg06 0.000000 0.000000 0.000000 0.000000 0.000000 0.000000 10.000000 
Rope4_Seg07 0.000000 0.000000 0.000000 0.000000 0.000000 0.000000 10.000000 
Rope4_Seg08 0.000000 0.000000 0.000000 0.000000 0.000000 0.000000 10.000000 
Rope4_Seg09 0.000000 0.000000 0.000000 0.000000 0.000000 0.000000 10.000000 
L_rear_hand01 0.000000 0.000000 0.000000 0.000000 0.000000 0.000000 10.000000 
L_rear_hand02 0.000000 0.000000 0.000000 0.000000 0.000000 0.000000 10.000000 
L_rear_hand03 0.000000 0.000000 0.000000 0.000000 0.000000 0.000000 10.000000 
#Beginning of Data. Separated by tabs
#Fr	Tx	Ty	Tz	Rx	Ry	Rz	SF
[MASTER]
2 0.000000 0.000000 0.000000 0.001660 0.001660 0.001660 0.000000
3 0.000000 0.000000 0.000000 0.001660 0.001660 0.001660 0.000000
[root]
2 -17.100950 4.398120 1449.840332 -91.036819 -11.718015 -90.306854 1449.947876
3 -18.725830 -1.997616 1453.967407 -89.248260 -12.097527 -92.469589 1454.089355
[chest]
2 -84.512650 -34.090519 0.000000 -2.114875 0.632697 165.269638 91.129311
3 -84.512650 -34.090519 0.000000 -2.024584 1.809740 161.904083 91.129311
[L_mid_tent01]
2 27.299120 22.179100 -249.918701 -14.250437 14.143882 30.382738 252.381683
3 27.299124 22.179096 -249.918701 -7.450209 14.282864 48.000816 252.381683
[R_mid_tent01]
2 23.228794 24.509907 226.238495 -174.848495 -16.132952 38.731983 228.744751
3 23.228794 24.509907 226.238495 175.959839 -11.131559 53.099613 228.744751
[spine01]
2 -0.361383 -0.195265 0.000000 0.001979 0.001266 24.757338 0.410763
3 -0.361383 -0.195265 0.000000 0.002009 0.001220 27.465841 0.410763
[Bip01_Neck]
2 165.484543 71.581718 0.000119 176.643677 -1.657967 43.431915 180.302734
3 165.484543 71.581718 0.000119 176.643677 -1.657967 43.431911 180.302734
[L_humerus]
2 -13.983130 -135.272980 -120.471481 -10.586011 72.841042 82.077415 181.680161
3 -13.983130 -135.272980 -120.471481 -20.907825 78.617661 75.082130 181.680161
[R_humerus]
2 -13.983309 -135.273102 125.287651 34.949116 -73.570328 60.843304 184.909012
3 -13.983309 -135.273102 125.287651 51.502617 -78.235931 44.502598 184.909012
[weapon_bone]
2 235.964890 -300.705902 0.000000 0.000000 -89.951546 -128.212341 382.234833
3 235.964890 -300.705902 0.000000 0.000000 -89.951546 -128.212341 382.234833
[Bip01_Head]
2 213.444199 185.715332 11.776944 5.309102 2.799260 -43.901829 283.173645
3 213.444199 185.715332 11.776944 6.285155 2.803712 -43.897690 283.173645
[eye_left_bone]
2 -24.626970 125.451866 -64.772606 0.000000 -90.000000 -99.840431 143.318359
3 -24.626970 125.451866 -64.772606 0.000000 -90.000000 -99.840431 143.318359
[eye_right_bone]
2 -24.626970 125.451866 64.327362 0.000000 -89.980217 80.156387 143.117676
3 -24.626970 125.451866 64.327362 0.000000 -89.972023 80.156380 143.117676
[L_forearm]
2 322.776093 0.000000 -0.000119 0.000396 -0.002314 -109.419983 322.776093
3 322.776093 0.000000 -0.000119 0.000396 -0.002314 -109.419975 322.776093
[L_front_hand]
2 241.149185 -0.042021 -3.300071 -178.667953 -1.835447 -27.422350 241.171753
3 241.149185 -0.042021 -3.300071 -178.667953 -1.835447 -27.422350 241.171753
[L_weapon_bone]
2 156.183838 0.000000 0.000000 0.000014 0.000007 0.000001 156.183838
3 156.183838 0.000000 0.000000 0.000014 0.000007 0.000001 156.183838
[L_front_hand01_01]
2 86.095154 20.947098 -0.655860 -0.366594 -0.477154 75.385574 88.609184
3 86.095154 20.947098 -0.655860 -0.366594 -0.477154 75.385574 88.609184
[L_front_hand02_01]
2 86.935165 -11.437475 24.513514 154.399796 -59.883835 -61.369587 91.046425
3 86.935165 -11.437475 24.513514 154.399796 -59.883835 -61.369587 91.046425
[L_front_hand03_01]
2 86.637497 -14.123976 -20.424902 -153.913849 58.118122 -62.702866 90.126129
3 86.637497 -14.123976 -20.424902 -153.913849 58.118122 -62.702866 90.126129
[L_front_hand01_02]
2 71.020905 -0.000179 0.000030 0.000321 -0.002325 -105.723465 71.020905
3 71.020905 -0.000179 0.000030 0.000320 -0.002325 -105.686226 71.020905
[L_front_hand02_02]
2 71.020927 -0.000119 0.000060 0.000321 -0.002325 -105.723465 71.020927
3 71.020927 -0.000119 0.000060 0.000320 -0.002325 -105.686226 71.020927
[L_front_hand03_02]
2 71.020905 -0.000060 0.000060 0.000321 -0.002325 -105.723465 71.020905
3 71.020905 -0.000060 0.000060 0.000320 -0.002325 -105.686226 71.020905
[R_forearm]
2 322.776428 -0.000060 0.000030 0.202103 0.065158 -108.062805 322.776428
3 322.776428 -0.000060 0.000030 0.202103 0.065158 -108.062805 322.776428
[R_front_hand]
2 238.847015 -0.006795 2.210259 -2.635298 -10.645461 -26.312504 238.857239
3 238.847015 -0.006795 2.210259 -2.635298 -10.645461 -26.312506 238.857239
[R_weapon_bone]
2 155.664093 0.002503 -0.000030 0.003487 0.001180 -90.988930 155.664078
3 155.664093 0.002503 -0.000030 0.003487 0.001180 -90.988930 155.664078
[R_front_hand01_01]
2 87.624611 14.231146 22.918642 -154.633499 -59.950619 61.746044 91.683487
3 87.624611 14.231146 22.918642 -154.633499 -59.950619 61.746044 91.683487
[R_front_hand02_01]
2 89.356956 14.367283 -19.491137 154.602661 58.302849 63.744389 92.579636
3 89.356956 14.367283 -19.491137 154.602661 58.302849 63.744389 92.579636
[R_front_hand03_01]
2 87.286232 -22.307278 -0.143439 0.162155 -0.423168 -75.767921 90.091743
3 87.286232 -22.307278 -0.143439 0.162155 -0.423168 -75.767921 90.091743
[R_front_hand01_02]
2 71.020905 0.000060 0.000119 0.002323 -0.000334 106.381721 71.020905
3 71.020905 0.000060 0.000119 0.002323 -0.000334 106.381714 71.020905
[R_front_hand02_02]
2 71.020844 -0.000030 -0.000119 0.002323 -0.000334 106.381721 71.020836
3 71.020844 -0.000030 -0.000119 0.002323 -0.000334 106.381714 71.020836
[R_front_hand03_02]
2 71.020905 0.000000 0.000030 0.002323 -0.000334 106.381721 71.020905
3 71.020905 0.000000 0.000030 0.002323 -0.000334 106.381714 71.020905
[null_rope01_connect]
2 328.732483 0.000000 -0.000238 -154.668701 -68.885201 -135.782700 328.732483
3 328.732483 0.000000 -0.000238 -145.733047 -73.393036 -161.425308 328.732483
[Rope1_Seg01]
2 -0.000038 0.000037 0.000148 49.369942 -8.478628 -120.733673 0.000157
3 -0.000037 0.000036 0.000142 62.449371 -7.119357 -128.423706 0.000151
[Rope1_Seg02]
2 139.999863 -0.000179 0.000000 -6.688399 5.866838 -1.075638 139.999863
3 139.999863 -0.000179 0.000000 -0.414734 3.926665 -4.200022 139.999863
[Rope1_Seg03]
2 139.999924 0.000060 -0.000060 -9.334945 6.792129 -1.612316 139.999924
3 139.999924 0.000060 -0.000060 -0.113178 3.195016 -3.584151 139.999924
[Rope1_Seg04]
2 139.999924 -0.000060 -0.000119 -11.529782 4.603114 1.790419 139.999924
3 139.999924 -0.000060 -0.000119 24.359695 -5.448595 -7.885103 139.999924
[Rope1_Seg05]
2 139.999832 0.000119 -0.000060 -3.099841 -1.445307 3.786978 139.999832
3 139.999832 0.000119 -0.000060 20.059261 -7.375897 -4.908451 139.999832
[Rope1_Seg06]
2 139.999954 0.000119 -0.000060 -2.069736 -0.232233 1.841080 139.999954
3 139.999954 0.000119 -0.000060 7.633221 -4.115372 -1.086418 139.999954
[Rope1_Seg07]
2 139.999985 0.000060 0.000000 -1.339789 -0.103193 1.184985 139.999985
3 139.999985 0.000060 0.000000 -0.077465 0.051122 0.006570 139.999985
[Rope1_Seg09]
2 121.602913 0.000119 -0.000089 -89.793175 -1.359789 0.847147 121.602913
3 121.602913 0.000119 -0.000089 -89.793175 -1.359789 0.847147 121.602913
[L_mid_hand01]
2 103.859421 1.038730 8.195221 128.584747 -66.574249 -36.738117 104.187431
3 103.859421 1.038730 8.195221 124.165955 -63.799015 -31.873352 104.187431
[L_mid_hand02]
2 105.572853 -4.139662 -10.864139 -167.717957 43.141708 -71.740593 106.211075
3 105.572853 -4.139662 -10.864139 -164.626358 42.318848 -67.191460 106.211075
[L_mid_hand03]
2 104.641464 17.579376 -3.913581 -6.429527 17.666080 73.526825 106.179977
3 104.641464 17.579376 -3.913581 -7.501869 17.251593 69.949562 106.179977
[null_rope02_connect]
2 328.732849 0.000179 -0.000119 -133.781662 74.167320 -15.982505 328.732849
3 328.732849 0.000179 -0.000119 -119.420067 79.955193 11.019443 328.732849
[Rope2_Seg01]
2 0.000069 0.000114 0.000000 65.701622 -11.344908 -69.361221 0.000133
3 0.000061 0.000113 0.000000 76.886543 -23.553764 -91.492126 0.000128
[Rope2_Seg02]
2 139.999741 -0.000060 -0.000119 -12.537367 19.872337 -3.692987 139.999756
3 139.999741 -0.000060 -0.000119 -4.617901 19.405771 -3.525253 139.999756
[Rope2_Seg03]
2 140.000107 0.000030 0.000000 -112.841812 38.907795 8.845772 140.000107
3 140.000107 0.000030 0.000000 145.130600 85.726852 -78.183281 140.000107
[Rope2_Seg04]
2 139.999802 0.000000 -0.000060 -37.138611 19.258652 -3.626963 139.999802
3 139.999802 0.000000 -0.000060 -7.128517 -20.716959 18.486486 139.999802
[Rope2_Seg05]
2 139.999985 -0.000060 0.000119 -135.995590 48.192837 10.252225 139.999985
3 139.999985 -0.000060 0.000119 -0.628068 -1.816453 3.202443 139.999985
[Rope2_Seg06]
2 139.999893 -0.000030 -0.000119 -1.246343 -12.600919 6.467030 139.999893
3 139.999893 -0.000030 -0.000119 -0.847570 0.969511 3.734329 139.999893
[Rope2_Seg07]
2 139.999893 0.000060 -0.000060 -0.308383 -5.523981 2.730213 139.999893
3 139.999893 0.000060 -0.000060 -2.521965 7.918378 12.193318 139.999893
[Rope2_Seg09]
2 121.338966 0.000089 -0.000060 33.793236 -1.359788 -0.847141 121.338966
3 121.338966 0.000089 -0.000060 33.793236 -1.359788 -0.847141 121.338966
[R_mid_hand01]
2 104.680779 11.144459 -10.335981 -16.756907 45.078602 69.693840 105.778534
3 104.680779 11.144459 -10.335981 -18.237753 44.607113 67.592667 105.778534
[R_mid_hand02]
2 104.070427 2.443552 8.231699 49.966972 -67.318741 38.315926 104.424065
3 104.070427 2.443552 8.231699 52.237907 -66.108360 35.844143 104.424065
[R_mid_hand03]
2 106.028137 -11.221827 -5.996406 -176.940826 15.523118 -75.998016 106.788818
3 106.028137 -11.221827 -5.996406 -176.510086 15.433296 -74.380737 106.788818
[spine02]
2 129.756927 0.001550 0.000119 0.360061 -4.044797 -12.915058 129.756927
3 129.756927 0.001550 0.000119 0.360061 -4.044797 -12.915058 129.756927
[spine03]
2 78.614067 0.081487 -4.899001 1.896495 3.831288 16.473049 78.766602
3 78.614067 0.081492 -4.899000 1.896494 3.831287 16.473045 78.766602
[pelvis]
2 169.435242 0.051022 0.000000 -0.060465 -0.180225 14.087929 169.435257
3 169.435242 0.051022 0.000000 -0.060465 -0.180225 14.087930 169.435257
[null_rope03_connect]
2 -1.257226 -2.466202 137.391083 0.000000 -89.481117 59.322563 137.418976
3 -1.257226 -2.466202 137.391083 -51.474098 -87.009254 108.509048 137.418976
[null_rope04_connect]
2 -1.259640 -2.480268 -137.844437 0.000000 -89.481117 59.322563 137.872513
3 -1.259640 -2.480268 -137.844437 -51.474098 -87.009254 108.509048 137.872513
[Rope3_Seg01]
2 0.000010 0.000037 -0.000148 -130.554688 6.996505 -76.088226 0.000152
3 0.000010 0.000036 -0.000142 -134.748566 -12.296741 -52.801022 0.000147
[Rope3_Seg02]
2 139.999924 -0.000119 0.000060 0.020456 -7.056921 2.106451 139.999924
3 139.999924 -0.000119 0.000060 6.539508 -12.494187 13.689659 139.999924
[Rope3_Seg03]
2 139.999924 -0.000119 0.000119 0.486822 -6.798439 -1.077593 139.999924
3 139.999924 -0.000119 0.000119 3.264494 -6.879355 9.736012 139.999924
[Rope3_Seg04]
2 139.999924 0.000119 0.000000 0.364477 -3.291589 2.529600 139.999924
3 139.999924 0.000119 0.000000 1.704457 -4.292103 7.357627 139.999924
[Rope3_Seg05]
2 139.999924 -0.000238 0.000060 0.409304 2.233575 10.685134 139.999924
3 139.999924 -0.000238 0.000060 1.391113 -6.725603 13.218125 139.999924
[Rope3_Seg06]
2 139.999893 -0.000119 -0.000060 0.076856 1.652328 8.294909 139.999893
3 139.999893 -0.000119 -0.000060 -0.872890 -8.320173 17.950047 139.999893
[Rope3_Seg07]
2 139.999771 0.000060 -0.000119 -0.105159 0.754469 5.582043 139.999771
3 139.999771 0.000060 -0.000119 -1.417479 -4.973431 10.777351 139.999771
[Rope3_Seg08]
2 139.999985 -0.000060 0.000000 -0.031595 0.497521 3.736209 139.999985
3 139.999985 -0.000060 0.000000 0.390018 -0.361931 0.747240 139.999985
[Rope3_Seg09]
2 90.185997 -0.000179 -0.000060 89.793228 -1.359877 -0.847183 90.185997
3 90.185997 -0.000179 -0.000060 89.793228 -1.359877 -0.847183 90.185997
[R_rear_hand01]
2 103.366196 -6.073594 -10.757982 -177.375809 24.533825 -73.108765 104.101845
3 103.366196 -6.073594 -10.757982 -176.465668 24.425859 -70.909309 104.101845
[R_rear_hand02]
2 100.509819 12.039542 -7.992327 -13.406411 36.702328 71.277184 101.543350
3 100.509819 12.039542 -7.992327 -14.843726 36.213379 68.859123 101.543350
[R_rear_hand03]
2 101.539970 5.215704 5.435467 72.167244 -71.123337 20.795889 101.819031
3 101.539970 5.215704 5.435467 73.787918 -69.202950 19.069901 101.819031
[Rope4_Seg01]
2 0.000018 0.000074 -0.000155 47.426590 22.414360 -108.699875 0.000173
3 0.000017 0.000071 -0.000158 48.741604 6.018610 -102.814682 0.000174
[Rope4_Seg02]
2 139.999985 0.000060 0.000119 0.028598 -0.968175 1.495089 139.999985
3 139.999985 0.000060 0.000119 0.289066 -8.240452 -11.009191 139.999985
[Rope4_Seg03]
2 139.999924 0.000000 -0.000238 0.023489 -1.577083 2.726903 139.999924
3 139.999924 0.000000 -0.000238 -0.464205 -10.244056 -9.511581 139.999924
[Rope4_Seg04]
2 139.999985 0.000000 0.000119 -0.133037 -3.677541 7.274791 139.999985
3 139.999985 0.000000 0.000119 -2.361473 -4.630024 -7.681544 139.999985
[Rope4_Seg05]
2 139.999802 -0.000060 -0.000119 -0.639540 4.534912 -12.621088 139.999802
3 139.999802 -0.000060 -0.000119 -8.646166 9.021601 -11.423805 139.999802
[Rope4_Seg06]
2 139.999924 0.000000 0.000060 -0.547214 3.752927 -9.756535 139.999924
3 139.999924 0.000000 0.000060 -8.620877 12.601066 -13.089560 139.999924
[Rope4_Seg07]
2 139.999802 0.000000 0.000000 -0.122262 1.664948 -4.437987 139.999802
3 139.999802 0.000000 0.000000 -4.691370 10.579025 -9.688962 139.999802
[Rope4_Seg08]
2 139.999924 0.000000 0.000119 -1.599148 0.989244 -2.619102 139.999924
3 139.999924 0.000000 0.000119 -2.551884 3.956286 -3.121107 139.999924
[Rope4_Seg09]
2 90.185791 0.000060 0.000060 -135.617828 2.228885 0.850567 90.185791
3 90.185791 0.000060 0.000060 -135.617828 2.228885 0.850567 90.185791
[L_rear_hand01]
2 101.696655 -8.392275 -7.654577 -14.676043 -36.272404 110.857796 102.329041
3 101.696655 -8.392275 -7.654577 -18.919888 -34.466518 118.185951 102.329041
[L_rear_hand02]
2 102.726799 -1.568258 5.773216 73.610298 69.437729 160.740753 102.900848
3 102.726799 -1.568258 5.773216 77.226944 63.386848 164.679077 102.900848
[L_rear_hand03]
2 104.552910 9.721220 -10.420293 -176.571304 -24.441328 -108.830589 105.519653
3 104.552910 9.721220 -10.420293 -173.780411 -23.916803 -115.646591 105.519653
